<?xml version="1.0" encoding="UTF-8" standalone="no"?>
<svg
   xmlns:dc="http://purl.org/dc/elements/1.1/"
   xmlns:cc="http://creativecommons.org/ns#"
   xmlns:rdf="http://www.w3.org/1999/02/22-rdf-syntax-ns#"
   xmlns:svg="http://www.w3.org/2000/svg"
   xmlns="http://www.w3.org/2000/svg"
   xmlns:sodipodi="http://sodipodi.sourceforge.net/DTD/sodipodi-0.dtd"
   xmlns:inkscape="http://www.inkscape.org/namespaces/inkscape"
   version="1.1"
   x="0px"
   y="0px"
   width="512px"
   height="512px"
   viewBox="0 0 512 512"
   enable-background="new 0 0 512 512"
   xml:space="preserve"
   id="svg2"
   inkscape:version="0.48.4 r9939"
   sodipodi:docname="para-js.svg"
   inkscape:export-filename="/home/nishi/Pictures/Creations/anims/para-backbone.png"
   inkscape:export-xdpi="90"
   inkscape:export-ydpi="90"><metadata
     id="metadata11"><rdf:RDF><cc:Work
         rdf:about=""><dc:format>image/svg+xml</dc:format><dc:type
           rdf:resource="http://purl.org/dc/dcmitype/StillImage" /><dc:title /></cc:Work></rdf:RDF></metadata><defs
     id="defs9" /><sodipodi:namedview
     pagecolor="#ffffff"
     bordercolor="#666666"
     borderopacity="1"
     objecttolerance="10"
     gridtolerance="10"
     guidetolerance="10"
     inkscape:pageopacity="0"
     inkscape:pageshadow="2"
     inkscape:window-width="1366"
     inkscape:window-height="709"
     id="namedview7"
     showgrid="false"
     inkscape:zoom="0.70710678"
     inkscape:cx="306.81581"
     inkscape:cy="190.11249"
     inkscape:window-x="0"
     inkscape:window-y="27"
     inkscape:window-maximized="1"
     inkscape:current-layer="svg2" /><path
     style="opacity:0.98999999;fill:#ff00ff;fill-opacity:1;fill-rule:nonzero;stroke:none"
     d=""
     id="path3015"
     inkscape:connector-curvature="0" /><path
     style="opacity:0.98999999;fill:#ff00ff;fill-opacity:1;fill-rule:nonzero;stroke:none"
     d=""
     id="path3027"
     inkscape:connector-curvature="0" /><path
     style="opacity:0.98999999;fill:#ff00ff;fill-opacity:1;fill-rule:nonzero;stroke:none"
     d=""
     id="path3029"
     inkscape:connector-curvature="0" /><path
     style="opacity:0.98999999;fill:#ff00ff;fill-opacity:1;fill-rule:nonzero;stroke:none"
     d=""
     id="path3031"
     inkscape:connector-curvature="0" /><path
     style="opacity:0.98999999;fill:#ff00ff;fill-opacity:1;fill-rule:nonzero;stroke:none"
     d=""
     id="path3033"
     inkscape:connector-curvature="0" /><path
     style="opacity:0.98999999;fill:#ff00ff;fill-opacity:1;fill-rule:nonzero;stroke:none"
     d=""
     id="path3045"
     inkscape:connector-curvature="0" /><path
     style="opacity:0.98999999;fill:#ff00ff;fill-opacity:1;fill-rule:nonzero;stroke:none"
     d=""
     id="path3047"
     inkscape:connector-curvature="0" /><path
     style="opacity:0.98999999;fill:#ff00ff;fill-opacity:1;fill-rule:nonzero;stroke:none"
     d=""
     id="path3051"
     inkscape:connector-curvature="0" /><path
     style="opacity:0.98999999;fill:#ff00ff;fill-opacity:1;fill-rule:nonzero;stroke:none"
     d=""
     id="path3059"
     inkscape:connector-curvature="0" /><path
     style="opacity:0.98999999;fill:#ff00ff;fill-opacity:1;fill-rule:nonzero;stroke:none"
     d=""
     id="path3061"
     inkscape:connector-curvature="0" /><path
     style="opacity:0.98999999;fill:#ff00ff;fill-opacity:1;fill-rule:nonzero;stroke:none"
     d=""
     id="path3063"
     inkscape:connector-curvature="0" /><path
     style="opacity:0.98999999;fill:#ff00ff;fill-opacity:1;fill-rule:nonzero;stroke:none"
     d=""
     id="path3065"
     inkscape:connector-curvature="0" /><path
     style="opacity:0.98999999;fill:#ff00ff;fill-opacity:1;fill-rule:nonzero;stroke:none"
     d=""
     id="path3069"
     inkscape:connector-curvature="0" /><path
     style="opacity:0.98999999;fill:#ff00ff;fill-opacity:1;fill-rule:nonzero;stroke:none"
     d=""
     id="path3071"
     inkscape:connector-curvature="0" /><path
     style="opacity:0.98999999;fill:#ff00ff;fill-opacity:1;fill-rule:nonzero;stroke:none"
     d=""
     id="path3079"
     inkscape:connector-curvature="0" /><path
     style="opacity:0.98999999;fill:#ff00ff;fill-opacity:1;fill-rule:nonzero;stroke:none"
     d=""
     id="path3081"
     inkscape:connector-curvature="0" /><path
     style="opacity:0.98999999;fill:#ff00ff;fill-opacity:1;fill-rule:nonzero;stroke:none"
     d=""
     id="path3083"
     inkscape:connector-curvature="0" /><path
     style="opacity:0.98999999;fill:#ff00ff;fill-opacity:1;fill-rule:nonzero;stroke:none"
     d=""
     id="path3085"
     inkscape:connector-curvature="0" /><path
     style="opacity:0.98999999;fill:#ff00ff;fill-opacity:1;fill-rule:nonzero;stroke:none"
     d=""
     id="path3163"
     inkscape:connector-curvature="0" /><g
     id="g4283"
     transform="matrix(0.45557825,0,0,0.37939847,80.947749,58.573382)"><path
       sodipodi:nodetypes="cc"
       inkscape:connector-curvature="0"
       id="path3075"
       d="M 96.324365,212.31608 C 412.46308,-235.59933 619.26769,233.10807 619.26769,233.10807"
       style="fill:none;stroke:#ffffff;stroke-width:16;stroke-linecap:butt;stroke-linejoin:miter;stroke-opacity:1" /><path
       style="fill:none;stroke:#ffffff;stroke-width:16;stroke-linecap:butt;stroke-linejoin:miter;stroke-opacity:1"
       d="m 101.28758,209.80655 c 59.68667,-87.30384 98.73118,4.0526 98.73118,4.0526"
       id="path3853"
       inkscape:connector-curvature="0"
       sodipodi:nodetypes="cc" /><path
       style="fill:none;stroke:#ffffff;stroke-width:16;stroke-linecap:butt;stroke-linejoin:miter;stroke-opacity:1"
       d="m 195.34997,219.94527 c 59.68667,-87.30384 98.73118,4.0526 98.73118,4.0526"
       id="path3853-0"
       inkscape:connector-curvature="0"
       sodipodi:nodetypes="cc" /><path
       style="fill:none;stroke:#ffffff;stroke-width:16;stroke-linecap:butt;stroke-linejoin:miter;stroke-opacity:1"
       d="m 298.20711,228.5167 c 59.68667,-87.30384 98.73118,4.0526 98.73118,4.0526"
       id="path3853-5"
       inkscape:connector-curvature="0"
       sodipodi:nodetypes="cc" /><path
       style="fill:none;stroke:#ffffff;stroke-width:16;stroke-linecap:butt;stroke-linejoin:miter;stroke-opacity:1"
       d="m 506.77854,231.37383 c 59.68667,-87.30384 98.73118,4.0526 98.73118,4.0526"
       id="path3853-07"
       inkscape:connector-curvature="0"
       sodipodi:nodetypes="cc" /><path
       style="fill:none;stroke:#ffffff;stroke-width:16;stroke-linecap:butt;stroke-linejoin:miter;stroke-opacity:1"
       d="m 406.77853,231.37383 c 59.68667,-87.30384 98.73118,4.0526 98.73118,4.0526"
       id="path3853-7"
       inkscape:connector-curvature="0"
       sodipodi:nodetypes="cc" /><path
       inkscape:connector-curvature="0"
       d="m 106.94431,197.75387 c 3.31879,2.50698 7.03582,4.74642 9.95639,7.52094 13.47578,12.80182 30.2557,34.91038 39.52047,47.5358 32.33066,44.05826 60.16918,89.95261 87.77323,136.03896 33.99308,59.47969 63.98203,120.47664 93.22363,181.69462 0,0 -15.69601,12.08181 -15.69601,12.08181 l 0,0 c -26.89603,-62.35464 -55.99848,-124.03026 -90.39318,-183.72586 -27.49876,-45.9238 -55.05193,-91.70532 -89.13873,-134.74412 -8.00207,-10.10361 -28.6192,-34.24435 -41.61992,-45.32759 -3.063655,-2.6118 -6.970185,-4.6028 -10.455295,-6.90419 0,0 16.829415,-14.17037 16.829415,-14.17037 z"
       id="path3894"
       style="opacity:0.98999999;fill:#ffffff;stroke:none" /><path
       inkscape:connector-curvature="0"
       d="m 608.13361,215.7967 c -3.50539,2.1775 -7.36323,4.04941 -10.51615,6.53249 -14.54792,11.45712 -33.40255,31.87519 -43.86301,43.56615 -36.50326,40.79732 -68.88895,83.86301 -101.07126,127.14307 -39.95798,56.01679 -76.23139,113.93645 -111.80965,172.14926 0,0 13.70762,13.57759 13.70762,13.57759 l 0,0 c 33.44963,-59.57478 68.9484,-118.2576 109.32011,-174.45061 32.06112,-43.12817 64.15775,-86.1091 102.23452,-125.71871 8.93874,-9.29861 31.74239,-31.37016 45.62547,-41.15943 3.27159,-2.30688 7.28264,-3.91255 10.92395,-5.86881 0,0 -14.5516,-15.771 -14.5516,-15.771 z"
       id="path3894-5"
       style="opacity:0.98999999;fill:#ffffff;stroke:none" /><path
       inkscape:connector-curvature="0"
       d="m 498.96245,222.43168 c -2.64967,2.3053 -5.69521,4.43313 -7.949,6.91592 -10.39909,11.45581 -22.50205,30.64852 -29.12709,41.57987 -23.11898,38.14656 -41.9343,77.35098 -60.51179,116.68746 -22.50335,50.61947 -41.18694,102.08654 -59.16611,153.66209 0,0 15.81462,8.22371 15.81462,8.22371 l 0,0 c 15.70762,-52.27018 33.4985,-104.19876 56.3345,-155.02727 18.5048,-39.197 37.07823,-78.28531 61.92103,-115.77726 5.832,-8.80145 21.11731,-29.96733 31.32365,-40.00676 2.40516,-2.36581 5.6557,-4.31239 8.48358,-6.46858 0,0 -17.12339,-9.78918 -17.12339,-9.78918 z"
       id="path3894-7"
       style="opacity:0.98999999;fill:#ffffff;stroke:none" /><path
       inkscape:connector-curvature="0"
       d="m 208.3429,209.78046 c 2.3687,2.59315 5.15096,5.05527 7.10608,7.77948 9.02099,12.56974 18.85002,33.02046 24.18168,44.63764 18.60556,40.53986 32.81472,81.63856 46.77251,122.84125 16.56777,52.86058 29.24392,106.12643 41.20786,159.41951 0,0 -16.65122,6.36148 -16.65122,6.36148 l 0,0 C 301.33194,497.0964 289.59542,443.47414 272.72108,390.36786 258.81956,349.31204 244.83742,308.35636 224.4445,268.2697 c -4.78736,-9.41057 -17.55225,-32.1854 -26.54371,-43.32601 -2.11887,-2.62531 -5.12551,-4.9308 -7.6883,-7.39619 0,0 18.13041,-7.76704 18.13041,-7.76704 z"
       id="path3894-7-5"
       style="opacity:0.98999999;fill:#ffffff;stroke:none" /><path
       inkscape:connector-curvature="0"
       d="m 301.48561,226.33999 c 2.65039,22.50626 2.8609,22.72641 4.87493,49.65998 4.49647,60.13104 1.36112,33.79254 7.50727,100.06512 4.49589,48.47797 7.13651,68.34342 12.80924,116.38639 8.08858,61.54306 4.24542,32.40774 11.52096,87.4055 0,0 -6.25059,-3.03185 -6.25059,-3.03185 l 0,0 c -5.25932,-54.10039 -2.33,-25.39158 -8.89647,-86.13264 -6.31903,-57.43967 -12.78633,-114.88687 -18.94684,-172.31783 -3.26889,-30.4741 -4.67116,-49.12882 -9.66461,-78.43158 -1.07315,-6.29757 -2.68357,-12.61363 -4.02541,-18.92044 0,0 11.07147,5.31735 11.07147,5.31735 z"
       id="path3997"
       style="opacity:0.98999999;fill:#ffffff;fill-opacity:1;fill-rule:nonzero;stroke:#ffffff;stroke-width:6.89667225;stroke-opacity:1" /><path
       inkscape:connector-curvature="0"
       d="m 396.70462,233.35701 c -4.38668,22.23316 -4.61361,22.43633 -8.70896,49.13281 -9.14316,59.60171 -3.97598,33.58541 -15.23983,99.18233 -8.23945,47.98373 -12.41172,67.58478 -21.79076,115.04361 -12.83389,60.73109 -6.74428,31.98124 -18.2603,86.24972 0,0 6.46676,-2.5383 6.46676,-2.5383 l 0,0 c 9.43632,-53.53007 4.29085,-25.13463 15.54506,-85.18409 10.75165,-56.77718 21.65171,-113.55037 32.24464,-170.33115 5.62083,-30.12911 8.46463,-48.61905 15.71406,-77.44667 1.55798,-6.19546 3.65306,-12.36771 5.47964,-18.55156 0,0 -11.45026,4.44331 -11.45026,4.44331 z"
       id="path3997-9"
       style="opacity:0.98999999;fill:#ffffff;fill-opacity:1;fill-rule:nonzero;stroke:#ffffff;stroke-width:6.89667225;stroke-opacity:1" /><path
       inkscape:connector-curvature="0"
       d="m 385.66277,19.840874 c 6.45664,0.580174 12.43328,3.556239 18.16026,6.676125 11.1155,6.055372 11.78952,6.95407 23.00368,14.588192 12.68248,11.382345 14.76392,12.562005 26.41416,26.010175 4.45526,5.14281 8.94717,10.29287 12.82803,15.94685 3.99928,5.8265 7.46045,12.07335 10.7423,18.392514 8.09246,15.58195 9.93813,22.37224 15.8932,38.86167 1.75807,6.51063 3.72694,12.96204 5.27423,19.53188 1.39931,5.94144 2.49985,11.95867 3.55963,17.97689 2.42372,13.76359 3.88845,27.66641 4.60075,41.62241 0.0264,1.37684 0.0528,2.75372 0.0792,4.13057 0,0 -2.17809,0.45425 -2.17809,0.45425 l 0,0 c 0.0312,-1.38606 0.0625,-2.77215 0.0937,-4.15822 -0.0312,-2.06172 -0.0194,-4.12417 -0.0937,-6.18515 -0.43001,-11.91318 -1.55996,-23.87662 -3.47248,-35.63878 -0.98073,-6.03154 -2.03023,-12.05898 -3.39477,-18.00812 -1.50839,-6.57626 -3.47811,-13.02535 -5.21715,-19.53804 -5.86911,-16.34364 -7.80329,-23.43567 -15.83242,-38.86158 -3.28823,-6.317504 -6.77599,-12.550204 -10.79199,-18.365784 -3.90028,-5.648 -8.39875,-10.80194 -12.88623,-15.92264 -11.60014,-13.23702 -14.09808,-14.73251 -26.77147,-25.872768 -11.5945,-7.662273 -12.02157,-8.42227 -23.54203,-14.385227 -5.9262,-3.067375 -12.17667,-6.011349 -18.82195,-6.297148 0,0 2.35304,-0.958069 2.35304,-0.958069 z"
       id="path4166"
       style="opacity:0.98999999;fill:#ffffff;fill-opacity:1;fill-rule:nonzero;stroke:#ffffff;stroke-width:9.66185188;stroke-opacity:1" /><path
       inkscape:connector-curvature="0"
       d="m 390.99312,21.814611 c -5.75258,-3.072671 -12.1049,-3.043224 -18.3048,-2.699113 -12.03342,0.667897 -12.98699,1.33461 -25.76959,3.805204 -15.61412,6.032523 -17.88671,6.211503 -33.49042,15.278525 -5.96714,3.467373 -11.96859,6.921969 -17.66102,11.325769 -5.86614,4.53818 -11.45029,9.88466 -16.9119,15.42067 -13.46738,13.65084 -17.90226,20.57743 -29.92849,36.540924 -4.24233,6.64806 -8.63955,13.10374 -12.727,19.94419 -3.69651,6.18616 -7.17006,12.63542 -10.60926,19.10958 -7.86541,14.80629 -14.97135,30.33451 -21.4578,46.36314 -0.6025,1.60684 -1.20501,3.21373 -1.80752,4.82059 0,0 1.66679,1.80233 1.66679,1.80233 l 0,0 c 0.55724,-1.65122 1.11441,-3.30253 1.67166,-4.95375 0.89509,-2.41098 1.7538,-4.84782 2.68535,-7.23286 5.38511,-13.78599 11.38851,-27.22401 17.97475,-39.96958 3.37736,-6.53585 6.81167,-13.02683 10.48177,-19.24229 4.05697,-6.87065 8.45393,-13.32309 12.68089,-19.98467 11.8915,-15.841714 16.52898,-23.072334 29.87662,-36.576164 5.46635,-5.53034 11.06721,-10.84467 16.94301,-15.36027 5.70648,-4.38545 11.71517,-7.840804 17.70048,-11.263395 15.47203,-8.847386 18.23298,-9.156164 33.73738,-14.908764 13.11892,-2.282481 13.80339,-2.929458 26.14334,-3.252862 6.34775,-0.166365 12.92015,0.0013 18.70965,3.530564 0,0 -1.6038,-2.497702 -1.6038,-2.497702 z"
       id="path4166-4"
       style="opacity:0.98999999;fill:#ffffff;fill-opacity:1;fill-rule:nonzero;stroke:#ffffff;stroke-width:10.80309296;stroke-opacity:1" /><path
       inkscape:connector-curvature="0"
       d="m 375.58052,21.343012 c 1.46617,0.594392 2.82336,3.64335 4.12385,6.839662 2.52412,6.203695 2.67718,7.124408 5.2237,14.945525 2.87996,11.661167 3.35261,12.869717 5.99816,26.647307 1.0117,5.26878 2.03173,10.54498 2.913,16.33746 0.90816,5.96921 1.69412,12.36908 2.43937,18.843034 1.83765,15.96362 2.25677,22.92024 3.60905,39.81358 0.39922,6.67011 0.84632,13.27954 1.19768,20.01031 0.31776,6.08697 0.56767,12.2516 0.80832,18.41723 0.55038,14.10073 0.883,28.3441 1.04474,42.64198 0.006,1.41052 0.012,2.82115 0.018,4.23167 0,0 -0.4946,0.46544 -0.4946,0.46544 l 0,0 c 0.007,-1.42006 0.0142,-2.84011 0.0212,-4.26006 -0.007,-2.1123 -0.004,-4.22523 -0.0212,-6.33671 -0.0976,-12.20497 -0.35424,-24.46146 -0.78854,-36.51173 -0.2227,-6.17927 -0.46102,-12.35436 -0.77088,-18.44922 -0.34253,-6.73735 -0.78981,-13.34441 -1.18472,-20.01662 -1.33277,-16.74398 -1.77198,-24.00973 -3.59525,-39.81349 -0.74669,-6.472254 -1.53869,-12.857624 -2.45065,-18.815644 -0.88568,-5.78636 -1.9072,-11.06653 -2.92622,-16.31267 -2.63417,-13.56126 -3.20141,-15.09338 -6.0793,-26.506513 -2.63289,-7.849977 -2.72986,-8.628583 -5.34595,-14.737605 -1.34572,-3.142505 -2.76509,-6.158596 -4.2741,-6.451398 0,0 0.53433,-0.981538 0.53433,-0.981538 z"
       id="path4166-3"
       style="opacity:0.98999999;fill:#ffffff;fill-opacity:1;fill-rule:nonzero;stroke:#ffffff;stroke-width:10;stroke-opacity:1" /><path
       inkscape:connector-curvature="0"
       d="m 366.26359,23.865687 c -3.60257,0.547591 -6.93737,3.356436 -10.13285,6.301046 -6.2021,5.71515 -6.57819,6.563354 -12.83533,13.768561 -7.07644,10.742852 -8.2378,11.856222 -14.73828,24.548842 -2.48588,4.85386 -4.99222,9.71456 -7.15762,15.05088 -2.23148,5.49914 -4.16268,11.39502 -5.99387,17.359144 -4.51535,14.70648 -5.54518,21.11527 -8.86791,36.67826 -0.98093,6.14483 -2.07952,12.23377 -2.94286,18.43449 -0.78078,5.60762 -1.39484,11.28679 -1.98615,16.96684 -1.35236,12.99036 -2.16965,26.112 -2.56707,39.28395 -0.0148,1.29941 -0.0295,2.59903 -0.0443,3.89844 0,0 1.2153,0.42876 1.2153,0.42876 l 0,0 c -0.0172,-1.30818 -0.0348,-2.61644 -0.0521,-3.92453 0.0172,-1.94595 0.01,-3.89256 0.0521,-5.83768 0.23982,-11.24386 0.87042,-22.53516 1.93755,-33.63649 0.5472,-5.6926 1.13279,-11.38144 1.89415,-16.99632 0.84165,-6.20679 1.94068,-12.29354 2.91102,-18.44032 3.2748,-15.42539 4.35399,-22.11896 8.83401,-36.67817 1.83472,-5.962564 3.78077,-11.845094 6.02158,-17.333914 2.17623,-5.33068 4.68624,-10.19504 7.19011,-15.02804 6.47251,-12.49332 7.86629,-13.90478 14.93765,-24.419129 6.46937,-7.231795 6.70763,-7.949089 13.13572,-13.577023 3.3066,-2.89503 6.79419,-5.673611 10.50203,-5.943353 0,0 -1.31292,-0.904244 -1.31292,-0.904244 z"
       id="path4166-3-4"
       style="opacity:0.98999999;fill:#ffffff;fill-opacity:1;fill-rule:nonzero;stroke:#ffffff;stroke-width:10;stroke-opacity:1" /></g><g
     transform="matrix(0.18230237,-0.06059066,0.06001,0.17000133,160.70271,291.66956)"
     id="5151e0c8492e5103c096af88a51e75c7"
     style="fill:#ffffff"><path
       style="fill:#ffffff;fill-rule:evenodd;display:inline"
       inkscape:connector-curvature="0"
       display="inline"
       clip-rule="evenodd"
       d="M 1.008,0.5 C 0.438,0.583 0.48,1.27 0.521,1.958 c 0,169.668 0,339.31 0,508.974 169.364,1.135 340.808,0.162 510.979,0.486 0,-170.309 0,-340.61 0,-510.918 -170.158,0 -340.333,0 -510.492,0 z m 258.885,451.667 c -11.822,11.919 -30.478,18.938 -53.429,18.938 -37.643,0 -58.543,-18.34 -71.884,-43.711 12.842,-8.2 25.966,-16.122 39.344,-23.795 5.456,15.262 23.886,32.42 44.683,21.857 13.183,-6.699 11.661,-27.01 11.661,-49.054 0,-45.773 0,-98.578 0,-139.872 -0.042,-0.688 -0.083,-1.375 0.482,-1.458 15.707,0 31.413,0 47.116,0 0,36.788 0,78.402 0,117.529 0,42.598 3.044,78.387 -17.973,99.566 z m 210.803,-42.25 c -2.674,39.884 -35.243,61.063 -79.17,61.188 -43.062,0.124 -70.624,-19.013 -87.433,-48.567 12.085,-8.317 25.778,-15.017 38.375,-22.822 10.08,15.761 27.537,30.91 53.429,28.652 16.131,-1.406 34.856,-14.555 24.285,-34.482 -5.127,-9.66 -17.516,-14.567 -28.656,-19.425 -35.352,-15.424 -76.828,-29.571 -72.861,-84.992 1.327,-18.514 9.852,-31.525 20.889,-40.796 11.311,-9.5 26.46,-15.867 46.629,-16.511 36.629,-1.173 56.723,15.12 70.429,37.884 -11.664,8.891 -24.514,16.608 -37.401,24.281 -4.229,-12.995 -24.644,-25.658 -41.772,-17.969 -7.789,3.493 -14.788,13.761 -10.684,26.224 3.66,11.115 18.589,17.199 30.599,22.344 36.352,15.56 76.977,30.767 73.342,84.991 z"
       id="path5" /></g></svg>