<?xml version="1.0" encoding="UTF-8" standalone="no"?>
<svg
   xmlns:dc="http://purl.org/dc/elements/1.1/"
   xmlns:cc="http://creativecommons.org/ns#"
   xmlns:rdf="http://www.w3.org/1999/02/22-rdf-syntax-ns#"
   xmlns:svg="http://www.w3.org/2000/svg"
   xmlns="http://www.w3.org/2000/svg"
   xmlns:sodipodi="http://sodipodi.sourceforge.net/DTD/sodipodi-0.dtd"
   xmlns:inkscape="http://www.inkscape.org/namespaces/inkscape"
   version="1.1"
   x="0px"
   y="0px"
   width="512px"
   height="512px"
   viewBox="0 0 512 512"
   enable-background="new 0 0 512 512"
   xml:space="preserve"
   id="svg2"
   inkscape:version="0.48.4 r9939"
   sodipodi:docname="para-hadoop.svg"
   inkscape:export-filename="/home/nishi/Pictures/Creations/anims/para-hadoop.png"
   inkscape:export-xdpi="90"
   inkscape:export-ydpi="90"><metadata
     id="metadata11"><rdf:RDF><cc:Work
         rdf:about=""><dc:format>image/svg+xml</dc:format><dc:type
           rdf:resource="http://purl.org/dc/dcmitype/StillImage" /><dc:title /></cc:Work></rdf:RDF></metadata><defs
     id="defs9" /><sodipodi:namedview
     pagecolor="#ffffff"
     bordercolor="#666666"
     borderopacity="1"
     objecttolerance="10"
     gridtolerance="10"
     guidetolerance="10"
     inkscape:pageopacity="0"
     inkscape:pageshadow="2"
     inkscape:window-width="1366"
     inkscape:window-height="709"
     id="namedview7"
     showgrid="false"
     inkscape:zoom="0.70710678"
     inkscape:cx="533.08998"
     inkscape:cy="359.81812"
     inkscape:window-x="0"
     inkscape:window-y="27"
     inkscape:window-maximized="1"
     inkscape:current-layer="svg2" /><path
     style="opacity:0.98999999;fill:#ff00ff;fill-opacity:1;fill-rule:nonzero;stroke:none"
     d=""
     id="path3015"
     inkscape:connector-curvature="0" /><path
     style="opacity:0.98999999;fill:#ff00ff;fill-opacity:1;fill-rule:nonzero;stroke:none"
     d=""
     id="path3027"
     inkscape:connector-curvature="0" /><path
     style="opacity:0.98999999;fill:#ff00ff;fill-opacity:1;fill-rule:nonzero;stroke:none"
     d=""
     id="path3029"
     inkscape:connector-curvature="0" /><path
     style="opacity:0.98999999;fill:#ff00ff;fill-opacity:1;fill-rule:nonzero;stroke:none"
     d=""
     id="path3031"
     inkscape:connector-curvature="0" /><path
     style="opacity:0.98999999;fill:#ff00ff;fill-opacity:1;fill-rule:nonzero;stroke:none"
     d=""
     id="path3033"
     inkscape:connector-curvature="0" /><path
     style="opacity:0.98999999;fill:#ff00ff;fill-opacity:1;fill-rule:nonzero;stroke:none"
     d=""
     id="path3045"
     inkscape:connector-curvature="0" /><path
     style="opacity:0.98999999;fill:#ff00ff;fill-opacity:1;fill-rule:nonzero;stroke:none"
     d=""
     id="path3047"
     inkscape:connector-curvature="0" /><path
     style="opacity:0.98999999;fill:#ff00ff;fill-opacity:1;fill-rule:nonzero;stroke:none"
     d=""
     id="path3051"
     inkscape:connector-curvature="0" /><path
     style="opacity:0.98999999;fill:#ff00ff;fill-opacity:1;fill-rule:nonzero;stroke:none"
     d=""
     id="path3059"
     inkscape:connector-curvature="0" /><path
     style="opacity:0.98999999;fill:#ff00ff;fill-opacity:1;fill-rule:nonzero;stroke:none"
     d=""
     id="path3061"
     inkscape:connector-curvature="0" /><path
     style="opacity:0.98999999;fill:#ff00ff;fill-opacity:1;fill-rule:nonzero;stroke:none"
     d=""
     id="path3063"
     inkscape:connector-curvature="0" /><path
     style="opacity:0.98999999;fill:#ff00ff;fill-opacity:1;fill-rule:nonzero;stroke:none"
     d=""
     id="path3065"
     inkscape:connector-curvature="0" /><path
     style="opacity:0.98999999;fill:#ff00ff;fill-opacity:1;fill-rule:nonzero;stroke:none"
     d=""
     id="path3069"
     inkscape:connector-curvature="0" /><path
     style="opacity:0.98999999;fill:#ff00ff;fill-opacity:1;fill-rule:nonzero;stroke:none"
     d=""
     id="path3071"
     inkscape:connector-curvature="0" /><path
     style="opacity:0.98999999;fill:#ff00ff;fill-opacity:1;fill-rule:nonzero;stroke:none"
     d=""
     id="path3079"
     inkscape:connector-curvature="0" /><path
     style="opacity:0.98999999;fill:#ff00ff;fill-opacity:1;fill-rule:nonzero;stroke:none"
     d=""
     id="path3081"
     inkscape:connector-curvature="0" /><path
     style="opacity:0.98999999;fill:#ff00ff;fill-opacity:1;fill-rule:nonzero;stroke:none"
     d=""
     id="path3083"
     inkscape:connector-curvature="0" /><path
     style="opacity:0.98999999;fill:#ff00ff;fill-opacity:1;fill-rule:nonzero;stroke:none"
     d=""
     id="path3085"
     inkscape:connector-curvature="0" /><path
     style="opacity:0.98999999;fill:#ff00ff;fill-opacity:1;fill-rule:nonzero;stroke:none"
     d=""
     id="path3163"
     inkscape:connector-curvature="0" /><g
     id="g4283"
     transform="matrix(0.45557825,0,0,0.37939847,80.947749,58.573382)"><path
       sodipodi:nodetypes="cc"
       inkscape:connector-curvature="0"
       id="path3075"
       d="M 96.324365,212.31608 C 412.46308,-235.59933 619.26769,233.10807 619.26769,233.10807"
       style="fill:none;stroke:#ffffff;stroke-width:16;stroke-linecap:butt;stroke-linejoin:miter;stroke-opacity:1" /><path
       style="fill:none;stroke:#ffffff;stroke-width:16;stroke-linecap:butt;stroke-linejoin:miter;stroke-opacity:1"
       d="m 101.28758,209.80655 c 59.68667,-87.30384 98.73118,4.0526 98.73118,4.0526"
       id="path3853"
       inkscape:connector-curvature="0"
       sodipodi:nodetypes="cc" /><path
       style="fill:none;stroke:#ffffff;stroke-width:16;stroke-linecap:butt;stroke-linejoin:miter;stroke-opacity:1"
       d="m 195.34997,219.94527 c 59.68667,-87.30384 98.73118,4.0526 98.73118,4.0526"
       id="path3853-0"
       inkscape:connector-curvature="0"
       sodipodi:nodetypes="cc" /><path
       style="fill:none;stroke:#ffffff;stroke-width:16;stroke-linecap:butt;stroke-linejoin:miter;stroke-opacity:1"
       d="m 298.20711,228.5167 c 59.68667,-87.30384 98.73118,4.0526 98.73118,4.0526"
       id="path3853-5"
       inkscape:connector-curvature="0"
       sodipodi:nodetypes="cc" /><path
       style="fill:none;stroke:#ffffff;stroke-width:16;stroke-linecap:butt;stroke-linejoin:miter;stroke-opacity:1"
       d="m 506.77854,231.37383 c 59.68667,-87.30384 98.73118,4.0526 98.73118,4.0526"
       id="path3853-07"
       inkscape:connector-curvature="0"
       sodipodi:nodetypes="cc" /><path
       style="fill:none;stroke:#ffffff;stroke-width:16;stroke-linecap:butt;stroke-linejoin:miter;stroke-opacity:1"
       d="m 406.77853,231.37383 c 59.68667,-87.30384 98.73118,4.0526 98.73118,4.0526"
       id="path3853-7"
       inkscape:connector-curvature="0"
       sodipodi:nodetypes="cc" /><path
       inkscape:connector-curvature="0"
       d="m 106.94431,197.75387 c 3.31879,2.50698 7.03582,4.74642 9.95639,7.52094 13.47578,12.80182 30.2557,34.91038 39.52047,47.5358 32.33066,44.05826 60.16918,89.95261 87.77323,136.03896 33.99308,59.47969 63.98203,120.47664 93.22363,181.69462 0,0 -15.69601,12.08181 -15.69601,12.08181 l 0,0 c -26.89603,-62.35464 -55.99848,-124.03026 -90.39318,-183.72586 -27.49876,-45.9238 -55.05193,-91.70532 -89.13873,-134.74412 -8.00207,-10.10361 -28.6192,-34.24435 -41.61992,-45.32759 -3.063655,-2.6118 -6.970185,-4.6028 -10.455295,-6.90419 0,0 16.829415,-14.17037 16.829415,-14.17037 z"
       id="path3894"
       style="opacity:0.98999999;fill:#ffffff;stroke:none" /><path
       inkscape:connector-curvature="0"
       d="m 608.13361,215.7967 c -3.50539,2.1775 -7.36323,4.04941 -10.51615,6.53249 -14.54792,11.45712 -33.40255,31.87519 -43.86301,43.56615 -36.50326,40.79732 -68.88895,83.86301 -101.07126,127.14307 -39.95798,56.01679 -76.23139,113.93645 -111.80965,172.14926 0,0 13.70762,13.57759 13.70762,13.57759 l 0,0 c 33.44963,-59.57478 68.9484,-118.2576 109.32011,-174.45061 32.06112,-43.12817 64.15775,-86.1091 102.23452,-125.71871 8.93874,-9.29861 31.74239,-31.37016 45.62547,-41.15943 3.27159,-2.30688 7.28264,-3.91255 10.92395,-5.86881 0,0 -14.5516,-15.771 -14.5516,-15.771 z"
       id="path3894-5"
       style="opacity:0.98999999;fill:#ffffff;stroke:none" /><path
       inkscape:connector-curvature="0"
       d="m 498.96245,222.43168 c -2.64967,2.3053 -5.69521,4.43313 -7.949,6.91592 -10.39909,11.45581 -22.50205,30.64852 -29.12709,41.57987 -23.11898,38.14656 -41.9343,77.35098 -60.51179,116.68746 -22.50335,50.61947 -41.18694,102.08654 -59.16611,153.66209 0,0 15.81462,8.22371 15.81462,8.22371 l 0,0 c 15.70762,-52.27018 33.4985,-104.19876 56.3345,-155.02727 18.5048,-39.197 37.07823,-78.28531 61.92103,-115.77726 5.832,-8.80145 21.11731,-29.96733 31.32365,-40.00676 2.40516,-2.36581 5.6557,-4.31239 8.48358,-6.46858 0,0 -17.12339,-9.78918 -17.12339,-9.78918 z"
       id="path3894-7"
       style="opacity:0.98999999;fill:#ffffff;stroke:none" /><path
       inkscape:connector-curvature="0"
       d="m 208.3429,209.78046 c 2.3687,2.59315 5.15096,5.05527 7.10608,7.77948 9.02099,12.56974 18.85002,33.02046 24.18168,44.63764 18.60556,40.53986 32.81472,81.63856 46.77251,122.84125 16.56777,52.86058 29.24392,106.12643 41.20786,159.41951 0,0 -16.65122,6.36148 -16.65122,6.36148 l 0,0 C 301.33194,497.0964 289.59542,443.47414 272.72108,390.36786 258.81956,349.31204 244.83742,308.35636 224.4445,268.2697 c -4.78736,-9.41057 -17.55225,-32.1854 -26.54371,-43.32601 -2.11887,-2.62531 -5.12551,-4.9308 -7.6883,-7.39619 0,0 18.13041,-7.76704 18.13041,-7.76704 z"
       id="path3894-7-5"
       style="opacity:0.98999999;fill:#ffffff;stroke:none" /><path
       inkscape:connector-curvature="0"
       d="m 301.48561,226.33999 c 2.65039,22.50626 2.8609,22.72641 4.87493,49.65998 4.49647,60.13104 1.36112,33.79254 7.50727,100.06512 4.49589,48.47797 7.13651,68.34342 12.80924,116.38639 8.08858,61.54306 4.24542,32.40774 11.52096,87.4055 0,0 -6.25059,-3.03185 -6.25059,-3.03185 l 0,0 c -5.25932,-54.10039 -2.33,-25.39158 -8.89647,-86.13264 -6.31903,-57.43967 -12.78633,-114.88687 -18.94684,-172.31783 -3.26889,-30.4741 -4.67116,-49.12882 -9.66461,-78.43158 -1.07315,-6.29757 -2.68357,-12.61363 -4.02541,-18.92044 0,0 11.07147,5.31735 11.07147,5.31735 z"
       id="path3997"
       style="opacity:0.98999999;fill:#ffffff;fill-opacity:1;fill-rule:nonzero;stroke:#ffffff;stroke-width:6.89667225;stroke-opacity:1" /><path
       inkscape:connector-curvature="0"
       d="m 396.70462,233.35701 c -4.38668,22.23316 -4.61361,22.43633 -8.70896,49.13281 -9.14316,59.60171 -3.97598,33.58541 -15.23983,99.18233 -8.23945,47.98373 -12.41172,67.58478 -21.79076,115.04361 -12.83389,60.73109 -6.74428,31.98124 -18.2603,86.24972 0,0 6.46676,-2.5383 6.46676,-2.5383 l 0,0 c 9.43632,-53.53007 4.29085,-25.13463 15.54506,-85.18409 10.75165,-56.77718 21.65171,-113.55037 32.24464,-170.33115 5.62083,-30.12911 8.46463,-48.61905 15.71406,-77.44667 1.55798,-6.19546 3.65306,-12.36771 5.47964,-18.55156 0,0 -11.45026,4.44331 -11.45026,4.44331 z"
       id="path3997-9"
       style="opacity:0.98999999;fill:#ffffff;fill-opacity:1;fill-rule:nonzero;stroke:#ffffff;stroke-width:6.89667225;stroke-opacity:1" /><path
       inkscape:connector-curvature="0"
       d="m 385.66277,19.840874 c 6.45664,0.580174 12.43328,3.556239 18.16026,6.676125 11.1155,6.055372 11.78952,6.95407 23.00368,14.588192 12.68248,11.382345 14.76392,12.562005 26.41416,26.010175 4.45526,5.14281 8.94717,10.29287 12.82803,15.94685 3.99928,5.8265 7.46045,12.07335 10.7423,18.392514 8.09246,15.58195 9.93813,22.37224 15.8932,38.86167 1.75807,6.51063 3.72694,12.96204 5.27423,19.53188 1.39931,5.94144 2.49985,11.95867 3.55963,17.97689 2.42372,13.76359 3.88845,27.66641 4.60075,41.62241 0.0264,1.37684 0.0528,2.75372 0.0792,4.13057 0,0 -2.17809,0.45425 -2.17809,0.45425 l 0,0 c 0.0312,-1.38606 0.0625,-2.77215 0.0937,-4.15822 -0.0312,-2.06172 -0.0194,-4.12417 -0.0937,-6.18515 -0.43001,-11.91318 -1.55996,-23.87662 -3.47248,-35.63878 -0.98073,-6.03154 -2.03023,-12.05898 -3.39477,-18.00812 -1.50839,-6.57626 -3.47811,-13.02535 -5.21715,-19.53804 -5.86911,-16.34364 -7.80329,-23.43567 -15.83242,-38.86158 -3.28823,-6.317504 -6.77599,-12.550204 -10.79199,-18.365784 -3.90028,-5.648 -8.39875,-10.80194 -12.88623,-15.92264 -11.60014,-13.23702 -14.09808,-14.73251 -26.77147,-25.872768 -11.5945,-7.662273 -12.02157,-8.42227 -23.54203,-14.385227 -5.9262,-3.067375 -12.17667,-6.011349 -18.82195,-6.297148 0,0 2.35304,-0.958069 2.35304,-0.958069 z"
       id="path4166"
       style="opacity:0.98999999;fill:#ffffff;fill-opacity:1;fill-rule:nonzero;stroke:#ffffff;stroke-width:9.66185188;stroke-opacity:1" /><path
       inkscape:connector-curvature="0"
       d="m 390.99312,21.814611 c -5.75258,-3.072671 -12.1049,-3.043224 -18.3048,-2.699113 -12.03342,0.667897 -12.98699,1.33461 -25.76959,3.805204 -15.61412,6.032523 -17.88671,6.211503 -33.49042,15.278525 -5.96714,3.467373 -11.96859,6.921969 -17.66102,11.325769 -5.86614,4.53818 -11.45029,9.88466 -16.9119,15.42067 -13.46738,13.65084 -17.90226,20.57743 -29.92849,36.540924 -4.24233,6.64806 -8.63955,13.10374 -12.727,19.94419 -3.69651,6.18616 -7.17006,12.63542 -10.60926,19.10958 -7.86541,14.80629 -14.97135,30.33451 -21.4578,46.36314 -0.6025,1.60684 -1.20501,3.21373 -1.80752,4.82059 0,0 1.66679,1.80233 1.66679,1.80233 l 0,0 c 0.55724,-1.65122 1.11441,-3.30253 1.67166,-4.95375 0.89509,-2.41098 1.7538,-4.84782 2.68535,-7.23286 5.38511,-13.78599 11.38851,-27.22401 17.97475,-39.96958 3.37736,-6.53585 6.81167,-13.02683 10.48177,-19.24229 4.05697,-6.87065 8.45393,-13.32309 12.68089,-19.98467 11.8915,-15.841714 16.52898,-23.072334 29.87662,-36.576164 5.46635,-5.53034 11.06721,-10.84467 16.94301,-15.36027 5.70648,-4.38545 11.71517,-7.840804 17.70048,-11.263395 15.47203,-8.847386 18.23298,-9.156164 33.73738,-14.908764 13.11892,-2.282481 13.80339,-2.929458 26.14334,-3.252862 6.34775,-0.166365 12.92015,0.0013 18.70965,3.530564 0,0 -1.6038,-2.497702 -1.6038,-2.497702 z"
       id="path4166-4"
       style="opacity:0.98999999;fill:#ffffff;fill-opacity:1;fill-rule:nonzero;stroke:#ffffff;stroke-width:10.80309296;stroke-opacity:1" /><path
       inkscape:connector-curvature="0"
       d="m 375.58052,21.343012 c 1.46617,0.594392 2.82336,3.64335 4.12385,6.839662 2.52412,6.203695 2.67718,7.124408 5.2237,14.945525 2.87996,11.661167 3.35261,12.869717 5.99816,26.647307 1.0117,5.26878 2.03173,10.54498 2.913,16.33746 0.90816,5.96921 1.69412,12.36908 2.43937,18.843034 1.83765,15.96362 2.25677,22.92024 3.60905,39.81358 0.39922,6.67011 0.84632,13.27954 1.19768,20.01031 0.31776,6.08697 0.56767,12.2516 0.80832,18.41723 0.55038,14.10073 0.883,28.3441 1.04474,42.64198 0.006,1.41052 0.012,2.82115 0.018,4.23167 0,0 -0.4946,0.46544 -0.4946,0.46544 l 0,0 c 0.007,-1.42006 0.0142,-2.84011 0.0212,-4.26006 -0.007,-2.1123 -0.004,-4.22523 -0.0212,-6.33671 -0.0976,-12.20497 -0.35424,-24.46146 -0.78854,-36.51173 -0.2227,-6.17927 -0.46102,-12.35436 -0.77088,-18.44922 -0.34253,-6.73735 -0.78981,-13.34441 -1.18472,-20.01662 -1.33277,-16.74398 -1.77198,-24.00973 -3.59525,-39.81349 -0.74669,-6.472254 -1.53869,-12.857624 -2.45065,-18.815644 -0.88568,-5.78636 -1.9072,-11.06653 -2.92622,-16.31267 -2.63417,-13.56126 -3.20141,-15.09338 -6.0793,-26.506513 -2.63289,-7.849977 -2.72986,-8.628583 -5.34595,-14.737605 -1.34572,-3.142505 -2.76509,-6.158596 -4.2741,-6.451398 0,0 0.53433,-0.981538 0.53433,-0.981538 z"
       id="path4166-3"
       style="opacity:0.98999999;fill:#ffffff;fill-opacity:1;fill-rule:nonzero;stroke:#ffffff;stroke-width:10;stroke-opacity:1" /><path
       inkscape:connector-curvature="0"
       d="m 366.26359,23.865687 c -3.60257,0.547591 -6.93737,3.356436 -10.13285,6.301046 -6.2021,5.71515 -6.57819,6.563354 -12.83533,13.768561 -7.07644,10.742852 -8.2378,11.856222 -14.73828,24.548842 -2.48588,4.85386 -4.99222,9.71456 -7.15762,15.05088 -2.23148,5.49914 -4.16268,11.39502 -5.99387,17.359144 -4.51535,14.70648 -5.54518,21.11527 -8.86791,36.67826 -0.98093,6.14483 -2.07952,12.23377 -2.94286,18.43449 -0.78078,5.60762 -1.39484,11.28679 -1.98615,16.96684 -1.35236,12.99036 -2.16965,26.112 -2.56707,39.28395 -0.0148,1.29941 -0.0295,2.59903 -0.0443,3.89844 0,0 1.2153,0.42876 1.2153,0.42876 l 0,0 c -0.0172,-1.30818 -0.0348,-2.61644 -0.0521,-3.92453 0.0172,-1.94595 0.01,-3.89256 0.0521,-5.83768 0.23982,-11.24386 0.87042,-22.53516 1.93755,-33.63649 0.5472,-5.6926 1.13279,-11.38144 1.89415,-16.99632 0.84165,-6.20679 1.94068,-12.29354 2.91102,-18.44032 3.2748,-15.42539 4.35399,-22.11896 8.83401,-36.67817 1.83472,-5.962564 3.78077,-11.845094 6.02158,-17.333914 2.17623,-5.33068 4.68624,-10.19504 7.19011,-15.02804 6.47251,-12.49332 7.86629,-13.90478 14.93765,-24.419129 6.46937,-7.231795 6.70763,-7.949089 13.13572,-13.577023 3.3066,-2.89503 6.79419,-5.673611 10.50203,-5.943353 0,0 -1.31292,-0.904244 -1.31292,-0.904244 z"
       id="path4166-3-4"
       style="opacity:0.98999999;fill:#ffffff;fill-opacity:1;fill-rule:nonzero;stroke:#ffffff;stroke-width:10;stroke-opacity:1" /></g><g
     transform="matrix(0.34132636,0,0,0.31876812,140.30948,252.91184)"
     id="3e91140ac1bfb9903b91c1b0ca0929ce"
     style="fill:#ffffff"><path
       style="fill:#ffffff;display:inline"
       inkscape:connector-curvature="0"
       display="inline"
       d="m 482.007,132.576 c -3.451,13.652 -10.421,25.263 -24.859,30.405 -7.078,2.52 -11.652,-0.073 -18.871,-2.154 7.086,0.674 11.161,1.763 17.507,-1.378 11.847,-5.858 20.576,-15.43 26.223,-26.873 z m 28.847,89.743 c -1.684,16.547 -6.101,32.622 -13.968,46.247 -7.045,12.218 -16.863,22.489 -29.941,29.492 -8.887,4.725 -19.213,7.461 -29.888,8.579 -11.082,1.152 -22.522,0.536 -33.197,-1.276 -0.499,1.654 -1.015,3.335 -1.506,4.978 -0.624,2.066 -1.256,4.146 -1.88,6.2 -2.179,7.161 -7.385,13.615 -13.872,18.397 -6.695,4.94 -14.858,8.167 -22.469,8.509 -7.27,0.353 -12.888,-1.36 -17.869,-4.301 -4.824,-2.836 -8.949,-6.782 -13.449,-11.128 l -5.896,-5.672 c -1.322,-1.289 -2.645,-2.574 -3.983,-3.851 -0.142,0.927 -0.274,1.813 -0.416,2.623 2.079,4.205 3.551,8.147 5.048,12.189 v 0.012 c 0.944,2.524 1.913,5.119 3.082,7.931 1.742,4.158 3.057,7.627 3.972,11.224 0.914,3.631 1.418,7.323 1.53,11.848 0.107,3.855 0.212,7.702 0.319,11.549 0.096,3.63 0.188,7.261 0.304,10.891 1.605,2.911 2.554,4.907 3.027,7.111 0.532,2.35 0.479,4.641 0.208,8.375 -0.59,8.393 -3.364,13.07 -8.025,15.724 -4.375,2.479 -10.168,2.849 -17.333,2.815 -1.09,-0.017 -2.856,-0.017 -4.999,-0.017 -6.952,0 -17.706,0.017 -20.996,-0.216 -4.42,-0.32 -8.097,-0.657 -11.182,-1.397 -2.379,-0.565 -4.334,-1.39 -5.968,-2.587 -2.375,1.917 -4.462,3.651 -6.559,5.377 -6.173,5.086 -12.439,10.268 -14.963,11.947 -0.967,1.489 -1.842,2.99 -2.645,4.384 -2.591,4.541 -4.508,7.9 -10.617,11.215 -11.998,6.479 -21.283,5.914 -29.428,0.915 -7.76,-4.762 -14.17,-13.511 -20.872,-23.849 -3.188,-4.907 -8.278,-12.991 -10.756,-20.918 -2.74,-8.774 -2.36,-17.308 6.381,-21.799 0.416,-0.216 0.838,-0.433 1.233,-0.641 0.911,-0.474 1.77,-0.906 2.628,-1.348 -3.313,0.175 -6.643,0.309 -9.956,0.267 -6.504,-0.042 -13.039,-0.49 -19.703,-1.348 0.108,0.795 0.2,1.431 0.251,1.843 0.51,4.42 0.863,7.314 0.443,10.213 -0.422,2.99 -1.609,5.651 -4.136,9.419 -0.168,0.25 -0.734,1.069 -1.218,1.755 -2.343,3.452 -3.728,5.506 -6.951,12.638 0.318,3.515 0.422,6.342 0.189,9.157 -0.256,3.032 -0.894,6.117 -1.973,10.151 -2.751,10.172 -12.979,12.517 -24.311,11.806 -10.398,-0.648 -21.782,-3.921 -28.359,-5.709 -1.428,-0.379 -2.586,-0.679 -3.711,-0.974 -5.55,-1.447 -11.53,-3.011 -16.563,-5.298 -10.078,-4.6 -16.537,-11.818 -10.247,-25.638 1.013,-2.191 1.896,-4.42 2.699,-6.666 0.308,-0.798 0.51,-1.563 0.771,-2.361 -5.131,0.798 -10.582,-0.175 -15.89,-2.192 -9.286,-3.53 -18.16,-10.275 -23.589,-15.706 -4.341,-4.351 -7.718,-9.032 -10.245,-13.84 -2.734,-5.207 -4.483,-10.604 -5.373,-15.919 -1.466,-8.699 -0.443,-9.689 4.699,-14.626 0.767,-0.752 1.626,-1.571 1.836,-1.775 2.541,-2.512 5.065,-5.031 7.6,-7.531 2.705,-2.682 5.441,-5.385 8.136,-8.08 1.239,-3.352 2.472,-6.695 3.715,-10.076 0.799,-2.158 1.591,-4.333 2.381,-6.482 -0.38,-2.005 -0.724,-4.021 -1.013,-6.084 -0.334,-2.408 -0.597,-4.62 -0.771,-6.616 -0.782,-9.194 -1.044,-17.101 -0.771,-24.261 0.206,-5.461 0.715,-10.484 1.553,-15.291 -4.246,0.946 -8.571,0.873 -12.49,-0.37 -4.843,-1.564 -9.07,-4.907 -11.688,-10.403 -0.981,-2.017 -1.753,-4.057 -2.483,-6.36 -0.642,-2.032 -1.235,-4.3 -1.871,-6.87 C 3.397,225.046 1.429,221.291 0.776,217.446 0,213.033 0.894,208.632 2.87,204.415 c 1.892,-4.053 4.797,-7.908 8.159,-11.405 9.055,-9.405 21.926,-16.474 27.916,-17.514 l 4.493,-0.786 -1.495,4.304 c -0.777,2.179 -1.686,4.462 -2.565,6.709 -0.248,0.653 -0.499,1.312 -0.771,2.021 2.755,2.179 4.406,5.202 5.177,8.643 1.204,5.321 0.426,11.451 -0.601,16.038 l -1.225,5.491 -3.48,-4.402 c -0.842,-1.038 -1.543,-2.119 -2.217,-3.167 -0.622,-0.957 -1.212,-1.857 -1.815,-2.597 -0.479,7.143 -1.348,14.306 -6.438,19.189 0.144,0.614 0.212,0.942 0.314,1.013 0.081,0.042 0.946,-0.43 3.034,-1.243 3.584,-1.368 6.772,-3.651 9.771,-6.335 3.083,-2.776 5.903,-5.945 8.756,-9.081 3.225,-6.263 6.916,-12.187 11.226,-17.821 4.381,-5.749 9.395,-11.184 15.183,-16.312 14.166,-12.546 27.947,-20.901 43.59,-26.954 15.312,-5.917 32.382,-9.646 53.352,-13.008 2.639,-2.736 5.317,-5.446 8.063,-8.126 2.946,-2.828 5.99,-5.656 9.178,-8.483 4.479,-3.938 8.222,-6.346 11.945,-7.836 3.362,-1.368 6.679,-1.903 10.407,-2.175 6.402,-8.535 12.239,-15.858 19.106,-22.202 7.19,-6.649 15.447,-12.183 26.564,-16.857 23.025,-9.712 42.546,-14.771 61.01,-13.611 18.597,1.163 35.996,8.608 54.643,23.993 3.519,2.907 7.103,6.047 10.675,9.184 7.814,6.87 15.482,13.597 24.49,19.231 3.393,2.102 6.263,3.928 9.099,6.078 2.803,2.14 5.39,4.531 8.084,7.712 3.256,3.898 6.229,7.791 8.837,11.96 2.191,3.483 4.104,7.18 5.793,11.236 3.817,-1.539 7.859,-3.235 11.095,-5.97 2.795,-2.397 5.123,-5.801 7.444,-9.194 2.079,-3.055 4.166,-6.082 6.645,-8.577 0.808,-0.838 1.73,-1.522 2.729,-2.025 3.801,-2.007 8.612,-1.676 13.166,-0.104 4.3,1.472 8.45,4.088 11.27,6.87 1.297,1.267 2.337,2.624 3.019,3.94 5.664,10.829 9.739,25.885 12.201,41.381 2.744,17.403 3.492,35.435 2.157,48.696 z m -79.306,-71.277 c -0.823,0.021 -1.63,0.042 -2.412,0.071 1.173,1.152 2.092,2.52 2.766,4.032 0.332,-0.318 0.711,-0.626 1.118,-0.904 -0.483,-1.08 -0.973,-2.151 -1.472,-3.199 z M 32.417,199.417 c 2.094,-0.235 3.396,0.865 5.016,2.478 -0.293,-3.865 -1.025,-6.734 -3.739,-8.329 -0.195,0.628 -0.349,1.26 -0.53,1.898 -0.35,1.243 -0.566,2.565 -0.747,3.953 z m 8.321,42.175 c 0.196,-0.695 0.401,-1.379 0.626,-2.078 1.316,-4.154 2.726,-8.186 4.238,-12.095 -3.163,2.859 -6.72,5.285 -11.035,7.013 -11.158,4.464 -10.931,0.607 -15.734,-9.08 10.211,-8.155 5.485,-18.171 8.735,-29.428 0.757,-2.587 1.853,-5.115 3.404,-8.448 -10.694,6.438 -30.347,24.419 -17.214,38.046 1.424,5.142 2.524,9.143 4.479,13.209 4.02,8.398 14.521,6.244 22.501,2.861 z M 70.303,377.823 C 58.887,360.545 48.574,339.976 42.522,319.059 c -1.117,2.998 -2.237,5.972 -3.348,8.966 -5.117,5.164 -10.232,10.346 -15.349,15.531 -3.791,3.847 -4.531,3.98 -3.764,9.415 1.034,7.461 5.436,15.391 12.012,22.103 6.015,6.143 26.779,22.165 34.944,11.245 1.738,-2.329 2.556,-5.207 3.286,-8.176 0,-0.116 0,-0.204 0,-0.32 z m 250.894,-32.707 c -1.805,-4.291 -2.803,-8.316 -4.059,-12.38 -2.716,9.715 -6.38,18.859 -9.706,29.372 -3.152,9.947 -19.346,38.791 -28.86,45.802 1.854,1.381 5.256,1.913 11.319,2.438 4.292,0.365 21.188,0.465 25.446,0.527 9.348,0.171 12.896,-0.54 13.844,-11.178 0.457,-5.219 0.041,-6.188 -2.563,-10.758 -0.224,-8.143 -0.448,-16.302 -0.673,-24.444 -0.236,-7.714 -1.72,-12.176 -4.748,-19.379 z m 167.98,-204.903 c -2.175,-5.267 -10.871,-13.16 -16.394,-7.795 -5.572,5.429 -9.764,13.07 -15.835,17.873 -8.275,6.504 -22.506,4.267 -19.928,18.09 1.884,10.068 2.42,21.337 0.266,30.717 -2.054,9.009 -4.191,21.812 -8.891,27.843 1.389,-5.104 3.726,-18.449 4.379,-27.452 0.354,-4.926 -0.199,-10.871 -1.119,-16.854 -1.039,0.021 -2.074,0.045 -3.135,0.077 -3.793,0.077 -9.973,5.516 -11.636,8.91 -4.641,9.452 -4.957,18.235 -10.155,27.232 4.184,-10.057 1.83,-19.127 5.651,-29.914 1.344,-3.805 4.758,-7.086 8.704,-9.083 -2.196,-0.328 -4.392,0.632 -7.636,1.389 -13.881,3.302 -13.257,14.212 -21.794,24.631 8.229,-15.098 4.029,-25.109 21.873,-29.182 5.872,-1.331 10.159,-1.865 14.019,1.22 0.083,0 0.167,0 0.241,-0.017 1.015,-0.077 2.021,-0.16 3.044,-0.231 -0.507,-2.771 -1.048,-5.501 -1.588,-8.074 -8.159,-1.069 -15.678,-0.842 -24.045,0.422 1.809,-0.786 3.568,-1.512 5.273,-2.129 2.661,-0.977 5.248,-1.749 7.821,-2.189 0.254,-0.509 0.403,-1.071 0.475,-1.676 0.266,-2.819 -1.821,-5.337 -4.637,-5.616 -2.828,-0.268 -5.231,1.811 -5.506,4.639 -0.1,1.11 0.291,2.437 0.915,3.537 -0.138,-0.248 -0.271,-0.493 -0.392,-0.755 l -0.012,-0.017 c -1.077,-2.077 -1.568,-4.473 -1.348,-6.957 0.195,-1.875 0.781,-3.604 1.676,-5.136 -0.274,0.066 -0.549,0.154 -0.823,0.251 -1.983,0.796 -6.213,0.541 -8.126,-0.114 3.751,-0.622 9.34,-2.616 12.95,-4.375 0.1,-0.042 0.195,-0.083 0.274,-0.133 2.254,-1.389 4.956,-2.073 7.776,-1.811 1.431,0.143 2.777,0.513 4.009,1.1 1.68,0.495 3.56,1.163 5.821,1.976 -3.435,-7.178 -7.314,-13.667 -11.984,-20.177 -4.416,-6.145 -8.126,-8.267 -14.655,-12.124 -1.422,-0.844 -2.811,-1.687 -4.183,-2.572 -4.824,-0.884 -10.205,-1.753 -14.847,-0.869 3.826,-1.505 6.704,-2.112 10.056,-2.389 -9.24,-6.625 -17.212,-14.06 -26.332,-21.73 -35.193,-29.592 -63.671,-27.49 -108.487,-8.032 -18.187,7.918 -24.697,15.879 -35.886,30.204 0.098,0 0.216,-0.01 0.35,-0.01 11.379,-0.287 22.693,-0.678 34.391,-1.778 -12.099,2.817 -23.668,5.069 -35.547,6.868 -13.108,2 -17.133,1.667 -27.02,11.289 -18.219,17.724 -33.48,37.757 -50.156,55.732 -9.65,10.417 -14.449,20.857 -20.115,32.724 -5.62,11.806 -4.842,16.278 2.699,26.481 7.704,10.444 12.361,15.168 15.627,24.441 8.519,-13.149 18.782,-24.051 29.603,-37.121 -8.835,14.16 -16.892,27.54 -24.194,41.937 -4.549,8.958 -6.783,13.523 -6.637,23.43 8.539,9.839 13.894,15.087 21.822,17.266 8.54,2.346 16.588,1.955 24.307,-2.046 19.204,-9.938 37.458,-22.905 58.772,-24.539 11.003,-19.611 7.912,-44.272 3.963,-66.578 -3.271,-18.537 -2.441,-34.884 1.975,-53.477 1.106,18.058 2.551,34.826 6.133,52.53 5.219,25.935 6.317,48.324 -4.59,75.122 -23.556,0.565 -42.889,14.367 -63.781,25.051 -9.394,4.808 -18.181,5.29 -28.692,2.79 -10.716,-2.549 -18.932,-10.816 -29.958,-22.889 1.081,-9.128 2.272,-14.8 5.522,-21.503 -3.932,-11.844 -8.808,-17.291 -17.821,-29.405 -10.453,-14.043 -10.633,-20.127 -2.726,-36.119 5.699,-11.594 11.041,-22.29 20.055,-32.867 8.874,-10.479 17.035,-20.233 25.284,-29.453 -34.283,5.204 -56.167,13.471 -79.582,34.008 -17.36,15.241 -28.188,34.165 -35.913,56.018 -4.895,13.79 -6.267,27.683 -3.959,50.226 2.967,29.056 18.397,61.838 35.013,85.749 -2.027,14.888 -4.655,26.104 -8.81,36.745 -4.71,12.068 14.033,15.761 23.088,18.239 7.353,2.017 35.279,9.681 38.04,-0.216 1.645,-5.931 1.645,-10.072 1.233,-16.327 4.978,-9.926 6.49,-11.253 10.043,-17.124 3.801,-6.284 4.119,-8.792 4.15,-16.173 0.015,-9.519 -0.231,-26.519 0.17,-32.665 1.289,5.497 2.822,13.149 4.092,20.493 19.849,3.551 39.548,3.293 59.384,-0.757 0.252,-1.385 0.711,-2.895 1.225,-4.749 1.326,-4.642 3.99,-9.282 5.331,-13.932 -0.375,4.579 -0.724,9.145 -1.096,13.711 -0.37,4.712 -0.385,8.513 0.195,13.212 0.32,2.586 0.649,5.165 0.957,7.747 -1.435,-2.366 -3.67,-4.637 -4.976,-7.016 -8.835,5.813 -13.694,9.104 -22.369,13.682 -9.164,4.849 1.347,22.198 5.131,28.229 8.319,13.203 18.254,28.855 33.707,20.68 5.069,-2.674 8.036,-8.878 11.419,-13.345 4.535,-2.669 28.612,-22.967 32.438,-25.18 5.398,-3.098 24.848,-34.965 27.313,-42.912 5.439,-17.599 11.827,-30.993 13.632,-49.353 -12.384,-5.207 -18.405,-10.991 -27.28,-21.425 12.476,9.248 23.246,14.192 36.695,18.451 4.902,4.32 9.848,8.688 14.991,13.266 7.456,6.641 14.302,13.411 25.113,13.606 11.694,0.2 24.918,-8.741 28.32,-19.828 1.306,-4.262 2.623,-8.537 3.925,-12.804 -2.312,-0.558 -4.582,-1.181 -6.77,-1.851 -2.425,5.83 -2.233,8.089 -3.377,12.372 -1.971,7.327 -12.056,12.413 -22.622,9.863 -3.756,-0.906 -5.964,-1.43 -7.303,-2.395 1.057,2.886 3.127,5.344 6.97,6.046 4.259,0.79 7.402,1.132 13.59,-0.274 -7.651,3.968 -10.113,4.138 -15.536,2.928 -14.268,-3.169 -9.244,-20.352 -6.134,-30.86 1.954,-6.616 1.293,-13.636 -0.188,-20.265 5.406,3.418 9.689,6.429 15.84,8.509 28.814,9.706 63.006,19.599 92.008,3.397 22.747,-12.696 35.219,-40.854 38.021,-66.647 2.497,-22.994 -1.811,-58.863 -11.234,-81.663 z M 342.09,278.663 c -0.566,3.581 -1.335,8.001 -1.901,11.582 1.522,-4.042 3.331,-8.721 5.091,-12.58 1.867,-4.079 2.91,-4.449 6.849,-6.604 2.812,-1.53 7.901,-3.626 10.7,-5.14 -2.882,0.482 -8.051,1.534 -10.921,2.021 -7.698,1.302 -8.613,3.144 -9.818,10.721 z M 210.549,140.954 c -8.926,8.843 -17.601,39.161 -20.373,51.285 4.356,-10.089 15.299,-38.256 23.679,-45.428 2.314,-1.986 3.944,-3.204 5.668,-4.09 -6,10.08 -5.564,12.577 -3.456,26.062 1.788,-13.709 6.545,-19.017 14.315,-29.232 8.529,-2.156 16.53,-4.706 25.271,-8.12 -9.872,1.121 -19.713,2.133 -29.603,3.065 -8.281,0.781 -9.618,0.663 -15.501,6.458 z m 148.258,33.623 c -1.917,-4.027 -5.285,-6.911 -9.182,-8.332 3.547,-1.913 7.011,-3.886 9.73,-6.35 -7.951,3.683 -17.199,2.778 -24.003,7.394 -6.03,4.042 -14.317,16.909 -20.418,22.348 4.416,-1.713 8.674,-4.681 12.592,-7.795 0.029,2.314 0.549,4.678 1.589,6.91 1.089,2.274 2.669,4.146 4.508,5.626 -0.524,-0.524 -0.978,-1.121 -1.314,-1.815 -1.63,-3.41 -0.175,-7.512 3.235,-9.126 3.418,-1.646 7.539,-0.187 9.169,3.219 0.146,0.329 0.287,0.657 0.379,0.986 -3.269,2.439 -6.263,5.288 -8.767,8.587 -2.187,2.879 -4.017,6.129 -5.322,9.729 11.619,-13.779 28.474,-24.203 44.321,-28.64 -4.433,-0.052 -9.681,0.78 -15.021,2.518 -0.191,-1.763 -0.677,-3.547 -1.496,-5.259 z m -56.756,-12.419 c 2.674,-11.835 7.428,-23.242 25.816,-32.075 -24.369,6.103 -28.943,16.337 -25.816,32.075 z"
       id="path5" /></g></svg>