<?xml version="1.0" encoding="UTF-8" standalone="no"?>
<svg
   xmlns:dc="http://purl.org/dc/elements/1.1/"
   xmlns:cc="http://creativecommons.org/ns#"
   xmlns:rdf="http://www.w3.org/1999/02/22-rdf-syntax-ns#"
   xmlns:svg="http://www.w3.org/2000/svg"
   xmlns="http://www.w3.org/2000/svg"
   xmlns:sodipodi="http://sodipodi.sourceforge.net/DTD/sodipodi-0.dtd"
   xmlns:inkscape="http://www.inkscape.org/namespaces/inkscape"
   version="1.1"
   x="0px"
   y="0px"
   width="512px"
   height="512px"
   viewBox="0 0 512 512"
   enable-background="new 0 0 512 512"
   xml:space="preserve"
   id="svg2"
   inkscape:version="0.48.4 r9939"
   sodipodi:docname="white-java-p1.svg"><metadata
     id="metadata11"><rdf:RDF><cc:Work
         rdf:about=""><dc:format>image/svg+xml</dc:format><dc:type
           rdf:resource="http://purl.org/dc/dcmitype/StillImage" /><dc:title></dc:title></cc:Work></rdf:RDF></metadata><defs
     id="defs9" /><sodipodi:namedview
     pagecolor="#ffffff"
     bordercolor="#666666"
     borderopacity="1"
     objecttolerance="10"
     gridtolerance="10"
     guidetolerance="10"
     inkscape:pageopacity="0"
     inkscape:pageshadow="2"
     inkscape:window-width="1366"
     inkscape:window-height="709"
     id="namedview7"
     showgrid="false"
     inkscape:zoom="0.70710678"
     inkscape:cx="476.52144"
     inkscape:cy="246.68103"
     inkscape:window-x="0"
     inkscape:window-y="27"
     inkscape:window-maximized="1"
     inkscape:current-layer="svg2" /><g
     id="5151e0c8492e5103c096af88a51e8d81"
     style="fill:#ffffff;stroke:#ffffff"
     transform="matrix(0.29216385,0,0,0.26692684,100.49901,204.87679)"><path
       display="inline"
       d="m 193.918,208.369 c -4.729,-10.456 -6.849,-22.652 -3.236,-33.731 3.612,-11.327 11.703,-20.413 19.794,-28.878 22.525,-22.531 50.285,-39.085 72.316,-61.986 12.197,-12.573 22.278,-27.634 25.762,-44.937 2.864,-12.695 1.496,-25.764 -1.117,-38.337 11.7,13.319 15.559,32.363 12.197,49.541 -3.608,19.292 -14.316,36.344 -26.886,51.031 -10.081,11.827 -21.659,22.282 -33.731,31.993 -14.065,11.327 -27.88,23.524 -36.716,39.457 -7.472,12.943 -9.215,28.876 -4.11,42.942 8.341,24.146 27.756,42.071 38.338,64.848 -11.703,-10.332 -23.152,-21.036 -33.86,-32.361 -11.198,-11.95 -21.78,-24.644 -28.751,-39.582 z m 63.48,-18.921 c -2.115,19.792 8.213,38.462 20.539,53.151 5.972,6.596 11.076,14.687 11.323,23.899 0.251,12.318 -6.716,23.774 -15.684,31.861 2.119,-0.246 3.612,-2.115 5.355,-3.11 13.443,-8.589 26.385,-19.418 32.982,-34.227 4.357,-10.083 3.362,-22.034 -2.362,-31.371 -6.724,-10.953 -15.559,-20.662 -20.786,-32.61 -2.867,-6.721 -3.862,-14.562 -1.496,-21.657 3.114,-9.583 9.834,-17.426 16.93,-24.272 19.54,-18.544 43.189,-31.743 65.844,-46.179 -28.629,8.214 -56.883,19.542 -81.03,37.343 -15.311,11.451 -29.498,27.382 -31.615,47.172 z m 136.049,93.604 c 13.568,0.748 26.882,10.704 29.374,24.397 2.366,11.825 -3.358,23.524 -10.705,32.485 -12.075,14.438 -28.382,24.771 -44.807,33.609 -1.622,0.991 -2.99,2.237 -4.235,3.608 21.659,-5.478 43.314,-13.689 60.867,-27.756 9.705,-8.091 18.294,-18.799 20.163,-31.619 1.743,-11.076 -2.86,-22.528 -11.077,-29.871 -9.96,-9.09 -24.021,-12.448 -37.218,-10.704 -7.593,0.995 -15.931,2.613 -21.158,8.961 6.226,-1.241 12.32,-3.733 18.796,-3.11 z M 123.22,318.647 c 16.303,4.357 33.108,5.603 49.787,6.724 14.936,0.995 29.875,1.246 44.937,1.12 38.833,-0.619 77.916,-3.236 116.003,-11.699 3.608,-0.87 7.593,-1.493 10.833,-3.733 6.347,-4.11 13.313,-7.347 20.162,-10.583 -30.995,4.979 -62.113,9.215 -93.478,11.205 -31.74,1.991 -63.731,3.236 -95.593,1.121 -9.086,-0.87 -18.423,-1.371 -26.886,-4.858 -1.994,-0.87 -4.733,-2.609 -3.738,-5.227 1.869,-3.361 5.603,-4.977 8.839,-6.72 13.694,-6.473 28.629,-10.081 43.193,-14.313 -25.021,-0.376 -49.916,5.971 -72.814,15.806 -5.105,2.491 -10.83,4.481 -14.936,8.714 -1.622,1.739 -1.622,4.732 0.247,6.222 3.735,3.361 8.711,4.854 13.444,6.221 z m 201.644,34.233 c -21.784,3.859 -43.694,7.472 -65.726,8.589 -24.147,1.618 -48.294,0.247 -72.191,-2.241 -4.604,-0.623 -9.211,-1.368 -13.317,-3.483 -2.116,-1.246 -4.231,-3.236 -4.106,-5.854 0.247,-4.106 3.73,-6.967 6.222,-9.956 -7.715,2.739 -15.434,5.599 -21.906,10.708 -2.742,2.116 -5.478,5.474 -4.733,9.208 1.125,4.356 5.356,6.97 9.09,8.96 9.208,4.733 19.54,6.846 29.625,8.714 25.511,4.11 51.527,4.235 77.167,2.488 27.141,-2.115 54.148,-6.594 80.411,-14.313 -7.468,-3.358 -14.564,-7.221 -20.536,-12.82 z m -136.796,43.071 c -6.97,1.99 -14.066,4.357 -19.79,8.957 -2.868,2.241 -5.105,6.104 -3.734,9.713 1.743,4.604 6.1,7.347 10.203,9.705 10.708,5.854 22.78,8.589 34.604,10.708 26.765,4.229 54.27,3.608 80.908,-1.12 15.806,-2.989 31.615,-7.221 46.301,-13.815 -9.584,-3.984 -18.917,-8.467 -27.878,-13.693 -15.559,2.738 -31.246,5.603 -47.178,6.598 -21.032,1.618 -42.319,-0.125 -63.355,-2.738 -4.98,-1.121 -11.202,-1.618 -14.563,-5.976 -1.739,-3.613 2.242,-6.227 4.482,-8.339 z m 170.277,80.031 c 17.424,-3.604 34.977,-7.719 50.908,-15.806 4.976,-2.867 11.076,-5.979 12.698,-11.95 0.87,-5.725 -5.105,-8.714 -9.337,-11.08 2.613,2.993 4.356,7.347 1.74,10.83 -4.357,5.853 -11.821,8.091 -18.42,10.332 -20.66,5.85 -42.072,8.216 -63.355,10.582 -56.385,5.102 -113.146,6.348 -169.528,1.618 -18.92,-1.994 -38.217,-4.109 -56.264,-10.829 -2.86,-1.246 -7.217,-2.492 -7.217,-6.352 1.117,-3.354 4.357,-5.227 7.217,-6.845 12.945,-6.595 27.384,-10.207 41.822,-11.077 -4.228,-2.491 -9.208,-2.738 -14.062,-2.613 -12.076,0.373 -23.9,3.483 -35.349,7.347 -9.834,3.604 -19.916,7.59 -27.76,14.811 -3.111,2.735 -5.971,7.962 -2.739,11.699 4.98,5.353 12.699,6.72 19.54,8.338 38.338,6.599 77.171,10.328 116.011,11.699 51.531,1.498 103.434,-0.744 154.095,-10.704 z m 51.033,6.724 c -23.402,7.468 -47.672,11.574 -71.822,14.936 -41.696,5.227 -83.769,6.845 -125.716,5.603 -25.515,-0.995 -51.03,-2.738 -76.176,-6.974 5.85,3.984 13.071,5.227 19.794,7.096 28.257,5.976 57.255,7.096 86.01,7.966 42.19,0.748 84.387,-0.87 125.962,-7.468 19.669,-3.48 39.459,-7.715 57.13,-16.927 9.215,-4.854 18.552,-12.326 20.163,-23.152 -9.332,9.955 -22.772,14.563 -35.345,18.92 z"
       id="path5"
       style="fill:#ffffff;display:inline;stroke:#ffffff"
       inkscape:connector-curvature="0" /></g><path
     style="opacity:0.98999999;fill:#ff00ff;fill-opacity:1;fill-rule:nonzero;stroke:none"
     d=""
     id="path3015"
     inkscape:connector-curvature="0" /><path
     style="opacity:0.98999999;fill:#ff00ff;fill-opacity:1;fill-rule:nonzero;stroke:none"
     d=""
     id="path3027"
     inkscape:connector-curvature="0" /><path
     style="opacity:0.98999999;fill:#ff00ff;fill-opacity:1;fill-rule:nonzero;stroke:none"
     d=""
     id="path3029"
     inkscape:connector-curvature="0" /><path
     style="opacity:0.98999999;fill:#ff00ff;fill-opacity:1;fill-rule:nonzero;stroke:none"
     d=""
     id="path3031"
     inkscape:connector-curvature="0" /><path
     style="opacity:0.98999999;fill:#ff00ff;fill-opacity:1;fill-rule:nonzero;stroke:none"
     d=""
     id="path3033"
     inkscape:connector-curvature="0" /><path
     style="opacity:0.98999999;fill:#ff00ff;fill-opacity:1;fill-rule:nonzero;stroke:none"
     d=""
     id="path3045"
     inkscape:connector-curvature="0" /><path
     style="opacity:0.98999999;fill:#ff00ff;fill-opacity:1;fill-rule:nonzero;stroke:none"
     d=""
     id="path3047"
     inkscape:connector-curvature="0" /><path
     style="opacity:0.98999999;fill:#ff00ff;fill-opacity:1;fill-rule:nonzero;stroke:none"
     d=""
     id="path3051"
     inkscape:connector-curvature="0" /><path
     style="opacity:0.98999999;fill:#ff00ff;fill-opacity:1;fill-rule:nonzero;stroke:none"
     d=""
     id="path3059"
     inkscape:connector-curvature="0" /><path
     style="opacity:0.98999999;fill:#ff00ff;fill-opacity:1;fill-rule:nonzero;stroke:none"
     d=""
     id="path3061"
     inkscape:connector-curvature="0" /><path
     style="opacity:0.98999999;fill:#ff00ff;fill-opacity:1;fill-rule:nonzero;stroke:none"
     d=""
     id="path3063"
     inkscape:connector-curvature="0" /><path
     style="opacity:0.98999999;fill:#ff00ff;fill-opacity:1;fill-rule:nonzero;stroke:none"
     d=""
     id="path3065"
     inkscape:connector-curvature="0" /><path
     style="opacity:0.98999999;fill:#ff00ff;fill-opacity:1;fill-rule:nonzero;stroke:none"
     d=""
     id="path3069"
     inkscape:connector-curvature="0" /><path
     style="opacity:0.98999999;fill:#ff00ff;fill-opacity:1;fill-rule:nonzero;stroke:none"
     d=""
     id="path3071"
     inkscape:connector-curvature="0" /><path
     style="opacity:0.98999999;fill:#ff00ff;fill-opacity:1;fill-rule:nonzero;stroke:none"
     d=""
     id="path3079"
     inkscape:connector-curvature="0" /><path
     style="opacity:0.98999999;fill:#ff00ff;fill-opacity:1;fill-rule:nonzero;stroke:none"
     d=""
     id="path3081"
     inkscape:connector-curvature="0" /><path
     style="opacity:0.98999999;fill:#ff00ff;fill-opacity:1;fill-rule:nonzero;stroke:none"
     d=""
     id="path3083"
     inkscape:connector-curvature="0" /><path
     style="opacity:0.98999999;fill:#ff00ff;fill-opacity:1;fill-rule:nonzero;stroke:none"
     d=""
     id="path3085"
     inkscape:connector-curvature="0" /><path
     style="opacity:0.98999999;fill:#ff00ff;fill-opacity:1;fill-rule:nonzero;stroke:none"
     d=""
     id="path3163"
     inkscape:connector-curvature="0" /><g
     id="g4114"
     transform="matrix(0.40797561,0,0,0.34768617,150.0281,9.637681)"
     style="fill:#ffffff;stroke:#ffffff"><g
       id="g4017"
       transform="translate(-295.6146,-11.153391)"
       style="fill:#ffffff;stroke:#ffffff"><path
         style="fill:#ffffff;stroke:#ffffff;stroke-width:16;stroke-linecap:butt;stroke-linejoin:miter;stroke-opacity:1"
         d="m 143.03738,267.31009 c 316.13872,-447.91541 522.94333,20.79199 522.94333,20.79199"
         id="path3075"
         inkscape:connector-curvature="0"
         sodipodi:nodetypes="cc" /><path
         sodipodi:nodetypes="cc"
         inkscape:connector-curvature="0"
         id="path3853"
         d="m 148.0006,264.80056 c 59.68667,-87.30384 98.73118,4.0526 98.73118,4.0526"
         style="fill:#ffffff;stroke:#ffffff;stroke-width:16;stroke-linecap:butt;stroke-linejoin:miter;stroke-opacity:1" /><path
         sodipodi:nodetypes="cc"
         inkscape:connector-curvature="0"
         id="path3853-0"
         d="m 242.06299,274.93928 c 59.68667,-87.30384 98.73118,4.0526 98.73118,4.0526"
         style="fill:#ffffff;stroke:#ffffff;stroke-width:16;stroke-linecap:butt;stroke-linejoin:miter;stroke-opacity:1" /><path
         sodipodi:nodetypes="cc"
         inkscape:connector-curvature="0"
         id="path3853-5"
         d="m 344.92013,283.51071 c 59.68667,-87.30384 98.73118,4.0526 98.73118,4.0526"
         style="fill:#ffffff;stroke:#ffffff;stroke-width:16;stroke-linecap:butt;stroke-linejoin:miter;stroke-opacity:1" /><path
         sodipodi:nodetypes="cc"
         inkscape:connector-curvature="0"
         id="path3853-07"
         d="m 553.49156,286.36784 c 59.68667,-87.30384 98.73118,4.0526 98.73118,4.0526"
         style="fill:#ffffff;stroke:#ffffff;stroke-width:16;stroke-linecap:butt;stroke-linejoin:miter;stroke-opacity:1" /><path
         sodipodi:nodetypes="cc"
         inkscape:connector-curvature="0"
         id="path3853-7"
         d="m 453.49155,286.36784 c 59.68667,-87.30384 98.73118,4.0526 98.73118,4.0526"
         style="fill:#ffffff;stroke:#ffffff;stroke-width:16;stroke-linecap:butt;stroke-linejoin:miter;stroke-opacity:1" /><path
         style="opacity:0.98999999000000005;fill:#ffffff;stroke:#ffffff"
         id="path3894"
         d="m 153.65733,252.74788 c 3.31879,2.50698 7.03582,4.74642 9.95639,7.52094 13.47578,12.80182 30.2557,34.91038 39.52047,47.5358 32.33066,44.05826 60.16918,89.95261 87.77323,136.03896 33.99308,59.47969 63.98203,120.47664 93.22363,181.69462 0,0 -15.69601,12.08181 -15.69601,12.08181 l 0,0 C 341.53901,575.26537 312.43656,513.58975 278.04186,453.89415 250.5431,407.97035 222.98993,362.18883 188.90313,319.15003 c -8.00207,-10.10361 -28.6192,-34.24435 -41.61992,-45.32759 -3.06366,-2.6118 -6.97019,-4.6028 -10.4553,-6.90419 0,0 16.82942,-14.17037 16.82942,-14.17037 z"
         inkscape:connector-curvature="0" /><path
         style="opacity:0.98999999000000005;fill:#ffffff;stroke:#ffffff"
         id="path3894-5"
         d="m 654.84663,270.79071 c -3.50539,2.1775 -7.36323,4.04941 -10.51615,6.53249 -14.54792,11.45712 -33.40255,31.87519 -43.86301,43.56615 -36.50326,40.79732 -68.88895,83.86301 -101.07126,127.14307 -39.95798,56.01679 -76.23139,113.93645 -111.80965,172.14926 0,0 13.70762,13.57759 13.70762,13.57759 l 0,0 c 33.44963,-59.57478 68.9484,-118.2576 109.32011,-174.45061 32.06112,-43.12817 64.15775,-86.1091 102.23452,-125.71871 8.93874,-9.29861 31.74239,-31.37016 45.62547,-41.15943 3.27159,-2.30688 7.28264,-3.91255 10.92395,-5.86881 0,0 -14.5516,-15.771 -14.5516,-15.771 z"
         inkscape:connector-curvature="0" /><path
         style="opacity:0.98999999000000005;fill:#ffffff;stroke:#ffffff"
         id="path3894-7"
         d="m 545.67547,277.42569 c -2.64967,2.3053 -5.69521,4.43313 -7.949,6.91592 -10.39909,11.45581 -22.50205,30.64852 -29.12709,41.57987 -23.11898,38.14656 -41.9343,77.35098 -60.51179,116.68746 -22.50335,50.61947 -41.18694,102.08654 -59.16611,153.66209 0,0 15.81462,8.22371 15.81462,8.22371 l 0,0 c 15.70762,-52.27018 33.4985,-104.19876 56.3345,-155.02727 18.5048,-39.197 37.07823,-78.28531 61.92103,-115.77726 5.832,-8.80145 21.11731,-29.96733 31.32365,-40.00676 2.40516,-2.36581 5.6557,-4.31239 8.48358,-6.46858 0,0 -17.12339,-9.78918 -17.12339,-9.78918 z"
         inkscape:connector-curvature="0" /><path
         style="opacity:0.98999999000000005;fill:#ffffff;stroke:#ffffff"
         id="path3894-7-5"
         d="m 255.05592,264.77447 c 2.3687,2.59315 5.15096,5.05527 7.10608,7.77948 9.02099,12.56974 18.85002,33.02046 24.18168,44.63764 18.60556,40.53986 32.81472,81.63856 46.77251,122.84125 16.56777,52.86058 29.24392,106.12643 41.20786,159.41951 0,0 -16.65122,6.36148 -16.65122,6.36148 l 0,0 c -9.62787,-53.72342 -21.36439,-107.34568 -38.23873,-160.45196 -13.90152,-41.05582 -27.88366,-82.0115 -48.27658,-122.09816 -4.78736,-9.41057 -17.55225,-32.1854 -26.54371,-43.32601 -2.11887,-2.62531 -5.12551,-4.9308 -7.6883,-7.39619 0,0 18.13041,-7.76704 18.13041,-7.76704 z"
         inkscape:connector-curvature="0" /><path
         style="opacity:0.98999999000000005;fill:#ffffff;fill-opacity:1;fill-rule:nonzero;stroke:#ffffff;stroke-width:6.89667224999999995;stroke-opacity:1"
         id="path3997"
         d="m 348.19863,281.334 c 2.65039,22.50626 2.8609,22.72641 4.87493,49.65998 4.49647,60.13104 1.36112,33.79254 7.50727,100.06512 4.49589,48.47797 7.13651,68.34342 12.80924,116.38639 8.08858,61.54306 4.24542,32.40774 11.52096,87.4055 0,0 -6.25059,-3.03185 -6.25059,-3.03185 l 0,0 c -5.25932,-54.10039 -2.33,-25.39158 -8.89647,-86.13264 -6.31903,-57.43967 -12.78633,-114.88687 -18.94684,-172.31783 -3.26889,-30.4741 -4.67116,-49.12882 -9.66461,-78.43158 -1.07315,-6.29757 -2.68357,-12.61363 -4.02541,-18.92044 0,0 11.07147,5.31735 11.07147,5.31735 z"
         inkscape:connector-curvature="0" /><path
         style="opacity:0.98999999000000005;fill:#ffffff;fill-opacity:1;fill-rule:nonzero;stroke:#ffffff;stroke-width:6.89667224999999995;stroke-opacity:1"
         id="path3997-9"
         d="m 443.41764,288.35102 c -4.38668,22.23316 -4.61361,22.43633 -8.70896,49.13281 -9.14316,59.60171 -3.97598,33.58541 -15.23983,99.18233 -8.23945,47.98373 -12.41172,67.58478 -21.79076,115.04361 -12.83389,60.73109 -6.74428,31.98124 -18.2603,86.24972 0,0 6.46676,-2.5383 6.46676,-2.5383 l 0,0 c 9.43632,-53.53007 4.29085,-25.13463 15.54506,-85.18409 10.75165,-56.77718 21.65171,-113.55037 32.24464,-170.33115 5.62083,-30.12911 8.46463,-48.61905 15.71406,-77.44667 1.55798,-6.19546 3.65306,-12.36771 5.47964,-18.55156 0,0 -11.45026,4.44331 -11.45026,4.44331 z"
         inkscape:connector-curvature="0" /></g><g
       id="g4108"
       style="fill:#ffffff;stroke:#ffffff"><path
         style="opacity:0.98999999000000005;fill:#ffffff;fill-opacity:1;fill-rule:nonzero;stroke:#ffffff;stroke-width:9.66185188000000039;stroke-opacity:1"
         id="path4166"
         d="m 136.76119,63.681497 c 6.45664,0.580174 12.43328,3.556239 18.16026,6.676125 11.1155,6.055372 11.78952,6.95407 23.00368,14.588192 12.68248,11.382345 14.76392,12.562005 26.41416,26.010176 4.45526,5.14281 8.94717,10.29287 12.82803,15.94685 3.99928,5.8265 7.46045,12.07335 10.7423,18.39251 8.09246,15.58195 9.93813,22.37224 15.8932,38.86167 1.75807,6.51063 3.72694,12.96204 5.27423,19.53188 1.39931,5.94144 2.49985,11.95867 3.55963,17.97689 2.42372,13.76359 3.88845,27.66641 4.60075,41.62241 0.0264,1.37684 0.0528,2.75372 0.0792,4.13057 0,0 -2.17809,0.45425 -2.17809,0.45425 l 0,0 c 0.0312,-1.38606 0.0625,-2.77215 0.0937,-4.15822 -0.0312,-2.06172 -0.0194,-4.12417 -0.0937,-6.18515 -0.43001,-11.91318 -1.55996,-23.87662 -3.47248,-35.63878 -0.98073,-6.03154 -2.03023,-12.05898 -3.39477,-18.00812 -1.50839,-6.57626 -3.47811,-13.02535 -5.21715,-19.53804 -5.86911,-16.34364 -7.80329,-23.43567 -15.83242,-38.86158 -3.28823,-6.3175 -6.77599,-12.5502 -10.79199,-18.36578 -3.90028,-5.648 -8.39875,-10.80194 -12.88623,-15.92264 C 191.94336,97.957689 189.44542,96.462199 176.77203,85.321941 165.17753,77.659668 164.75046,76.899671 153.23,70.936714 c -5.9262,-3.067375 -12.17667,-6.011349 -18.82195,-6.297148 0,0 2.35304,-0.958069 2.35304,-0.958069 z"
         inkscape:connector-curvature="0" /><path
         style="opacity:0.98999999000000005;fill:#ffffff;fill-opacity:1;fill-rule:nonzero;stroke:#ffffff;stroke-width:10.80309296000000074;stroke-opacity:1"
         id="path4166-4"
         d="m 142.09154,65.655234 c -5.75258,-3.072671 -12.1049,-3.043224 -18.3048,-2.699113 -12.03342,0.667897 -12.98699,1.33461 -25.769591,3.805204 -15.61412,6.032523 -17.88671,6.211503 -33.49042,15.278525 -5.96714,3.467373 -11.96859,6.921969 -17.66102,11.325769 -5.86614,4.53818 -11.45029,9.884661 -16.9119,15.420671 -13.46738,13.65084 -17.90226,20.57743 -29.92849019,36.54092 -4.24233001,6.64806 -8.63955001,13.10374 -12.72699981,19.94419 -3.69651,6.18616 -7.17006,12.63542 -10.60926,19.10958 -7.86541,14.80629 -14.97135,30.33451 -21.4578,46.36314 -0.6025,1.60684 -1.20501,3.21373 -1.80752,4.82059 0,0 1.66679,1.80233 1.66679,1.80233 l 0,0 c 0.55724,-1.65122 1.11441,-3.30253 1.67166,-4.95375 0.89509,-2.41098 1.7538,-4.84782 2.68535,-7.23286 5.38511,-13.78599 11.38851,-27.22401 17.97475,-39.96958 3.37736,-6.53585 6.81167,-13.02683 10.48177,-19.24229 4.0569698,-6.87065 8.4539298,-13.32309 12.68088981,-19.98467 C 12.476449,130.14218 17.113929,122.91156 30.461569,109.40773 c 5.46635,-5.53034 11.06721,-10.844671 16.94301,-15.360271 5.70648,-4.38545 11.71517,-7.840804 17.70048,-11.263395 15.47203,-8.847386 18.23298,-9.156164 33.73738,-14.908764 13.118921,-2.282481 13.803391,-2.929458 26.143341,-3.252862 6.34775,-0.166365 12.92015,0.0013 18.70965,3.530564 0,0 -1.6038,-2.497702 -1.6038,-2.497702 z"
         inkscape:connector-curvature="0" /><path
         style="opacity:0.98999999000000005;fill:#ffffff;fill-opacity:1;fill-rule:nonzero;stroke:#ffffff;stroke-width:10;stroke-opacity:1"
         id="path4166-3"
         d="m 126.67894,65.183635 c 1.46617,0.594392 2.82336,3.64335 4.12385,6.839662 2.52412,6.203695 2.67718,7.124408 5.2237,14.945525 2.87996,11.661167 3.35261,12.869717 5.99816,26.647308 1.0117,5.26878 2.03173,10.54498 2.913,16.33746 0.90816,5.96921 1.69412,12.36908 2.43937,18.84303 1.83765,15.96362 2.25677,22.92024 3.60905,39.81358 0.39922,6.67011 0.84632,13.27954 1.19768,20.01031 0.31776,6.08697 0.56767,12.2516 0.80832,18.41723 0.55038,14.10073 0.883,28.3441 1.04474,42.64198 0.006,1.41052 0.012,2.82115 0.018,4.23167 0,0 -0.4946,0.46544 -0.4946,0.46544 l 0,0 c 0.007,-1.42006 0.0142,-2.84011 0.0212,-4.26006 -0.007,-2.1123 -0.004,-4.22523 -0.0212,-6.33671 -0.0976,-12.20497 -0.35424,-24.46146 -0.78854,-36.51173 -0.2227,-6.17927 -0.46102,-12.35436 -0.77088,-18.44922 -0.34253,-6.73735 -0.78981,-13.34441 -1.18472,-20.01662 -1.33277,-16.74398 -1.77198,-24.00973 -3.59525,-39.81349 -0.74669,-6.47225 -1.53869,-12.85762 -2.45065,-18.81564 -0.88568,-5.78636 -1.9072,-11.06653 -2.92622,-16.31267 -2.63417,-13.56126 -3.20141,-15.093381 -6.0793,-26.506514 -2.63289,-7.849977 -2.72986,-8.628583 -5.34595,-14.737605 -1.34572,-3.142505 -2.76509,-6.158596 -4.2741,-6.451398 0,0 0.53433,-0.981538 0.53433,-0.981538 z"
         inkscape:connector-curvature="0" /><path
         style="opacity:0.98999999000000005;fill:#ffffff;fill-opacity:1;fill-rule:nonzero;stroke:#ffffff;stroke-width:10;stroke-opacity:1"
         id="path4166-3-4"
         d="m 117.36201,67.70631 c -3.60257,0.547591 -6.93737,3.356436 -10.13285,6.301046 -6.2021,5.71515 -6.57819,6.563354 -12.835331,13.768561 -7.07644,10.742852 -8.2378,11.856222 -14.73828,24.548843 -2.48588,4.85386 -4.99222,9.71456 -7.15762,15.05088 -2.23148,5.49914 -4.16268,11.39502 -5.99387,17.35914 -4.51535,14.70648 -5.54518,21.11527 -8.86791,36.67826 -0.98093,6.14483 -2.07952,12.23377 -2.94286,18.43449 -0.78078,5.60762 -1.39484,11.28679 -1.98615,16.96684 -1.35236,12.99036 -2.16965,26.112 -2.56707,39.28395 -0.0148,1.29941 -0.0295,2.59903 -0.0443,3.89844 0,0 1.2153,0.42876 1.2153,0.42876 l 0,0 c -0.0172,-1.30818 -0.0348,-2.61644 -0.0521,-3.92453 0.0172,-1.94595 0.01,-3.89256 0.0521,-5.83768 0.23982,-11.24386 0.87042,-22.53516 1.93755,-33.63649 0.5472,-5.6926 1.13279,-11.38144 1.89415,-16.99632 0.84165,-6.20679 1.94068,-12.29354 2.91102,-18.44032 3.2748,-15.42539 4.35399,-22.11896 8.83401,-36.67817 1.83472,-5.96256 3.78077,-11.84509 6.02158,-17.33391 2.17623,-5.33068 4.68624,-10.19504 7.19011,-15.02804 6.47251,-12.49332 7.86629,-13.904781 14.93765,-24.41913 6.469371,-7.231795 6.707631,-7.949089 13.135721,-13.577023 3.3066,-2.89503 6.79419,-5.673611 10.50203,-5.943353 0,0 -1.31292,-0.904244 -1.31292,-0.904244 z"
         inkscape:connector-curvature="0" /></g></g></svg>